<mxfile host="app.diagrams.net" modified="2024-07-04T09:21:41.741Z" agent="Mozilla/5.0 (Windows NT 10.0; Win64; x64) AppleWebKit/537.36 (KHTML, like Gecko) Chrome/126.0.0.0 Safari/537.36" etag="1OQ0N-dbEV2PrW_chvDh" version="24.6.4" type="device">
  <diagram name="Sayfa -1" id="kodbjQME5GF7FGBA6-pu">
    <mxGraphModel dx="1235" dy="655" grid="1" gridSize="10" guides="1" tooltips="1" connect="1" arrows="1" fold="1" page="1" pageScale="1" pageWidth="827" pageHeight="1169" math="0" shadow="0">
      <root>
        <mxCell id="0" />
        <mxCell id="1" parent="0" />
        <mxCell id="QC46QSZm51jcQvzhhJ4u-19" style="edgeStyle=orthogonalEdgeStyle;rounded=0;orthogonalLoop=1;jettySize=auto;html=1;exitX=0.5;exitY=1;exitDx=0;exitDy=0;entryX=0.5;entryY=0;entryDx=0;entryDy=0;" edge="1" parent="1" source="QC46QSZm51jcQvzhhJ4u-6" target="QC46QSZm51jcQvzhhJ4u-9">
          <mxGeometry relative="1" as="geometry" />
        </mxCell>
        <mxCell id="QC46QSZm51jcQvzhhJ4u-20" value="&lt;font style=&quot;font-size: 7px;&quot;&gt;3 Saniye Sonra&lt;/font&gt;" style="edgeLabel;html=1;align=center;verticalAlign=middle;resizable=0;points=[];" vertex="1" connectable="0" parent="QC46QSZm51jcQvzhhJ4u-19">
          <mxGeometry x="-0.108" relative="1" as="geometry">
            <mxPoint as="offset" />
          </mxGeometry>
        </mxCell>
        <mxCell id="QC46QSZm51jcQvzhhJ4u-6" value="" style="rounded=1;whiteSpace=wrap;html=1;" vertex="1" parent="1">
          <mxGeometry x="200" y="10" width="120" height="210" as="geometry" />
        </mxCell>
        <mxCell id="QC46QSZm51jcQvzhhJ4u-7" value="ICON" style="rounded=1;whiteSpace=wrap;html=1;" vertex="1" parent="1">
          <mxGeometry x="220" y="85" width="80" height="60" as="geometry" />
        </mxCell>
        <mxCell id="QC46QSZm51jcQvzhhJ4u-47" style="edgeStyle=orthogonalEdgeStyle;rounded=0;orthogonalLoop=1;jettySize=auto;html=1;exitX=1;exitY=0.75;exitDx=0;exitDy=0;entryX=0;entryY=0.75;entryDx=0;entryDy=0;" edge="1" parent="1" source="QC46QSZm51jcQvzhhJ4u-8" target="QC46QSZm51jcQvzhhJ4u-32">
          <mxGeometry relative="1" as="geometry" />
        </mxCell>
        <mxCell id="QC46QSZm51jcQvzhhJ4u-48" value="&lt;font style=&quot;font-size: 7px;&quot;&gt;Yeni Hesap&lt;/font&gt;" style="edgeLabel;html=1;align=center;verticalAlign=middle;resizable=0;points=[];" vertex="1" connectable="0" parent="QC46QSZm51jcQvzhhJ4u-47">
          <mxGeometry x="0.0333" y="1" relative="1" as="geometry">
            <mxPoint y="4" as="offset" />
          </mxGeometry>
        </mxCell>
        <mxCell id="QC46QSZm51jcQvzhhJ4u-68" style="edgeStyle=orthogonalEdgeStyle;rounded=0;orthogonalLoop=1;jettySize=auto;html=1;exitX=0.5;exitY=1;exitDx=0;exitDy=0;entryX=0.5;entryY=0;entryDx=0;entryDy=0;" edge="1" parent="1" source="QC46QSZm51jcQvzhhJ4u-8" target="QC46QSZm51jcQvzhhJ4u-54">
          <mxGeometry relative="1" as="geometry" />
        </mxCell>
        <mxCell id="QC46QSZm51jcQvzhhJ4u-69" value="&lt;font style=&quot;font-size: 7px;&quot;&gt;Başarılı Giriş&lt;/font&gt;" style="edgeLabel;html=1;align=center;verticalAlign=middle;resizable=0;points=[];" vertex="1" connectable="0" parent="QC46QSZm51jcQvzhhJ4u-68">
          <mxGeometry x="-0.1143" y="-1" relative="1" as="geometry">
            <mxPoint as="offset" />
          </mxGeometry>
        </mxCell>
        <mxCell id="QC46QSZm51jcQvzhhJ4u-8" value="" style="rounded=1;whiteSpace=wrap;html=1;" vertex="1" parent="1">
          <mxGeometry x="200" y="280" width="120" height="210" as="geometry" />
        </mxCell>
        <mxCell id="QC46QSZm51jcQvzhhJ4u-9" value="Program Adı ve Üst Dekorasyon" style="rounded=1;whiteSpace=wrap;html=1;arcSize=30;" vertex="1" parent="1">
          <mxGeometry x="200" y="280" width="120" height="60" as="geometry" />
        </mxCell>
        <mxCell id="QC46QSZm51jcQvzhhJ4u-10" value="&lt;span style=&quot;font-size: 7px;&quot;&gt;Email&lt;/span&gt;" style="text;html=1;align=center;verticalAlign=middle;whiteSpace=wrap;rounded=0;" vertex="1" parent="1">
          <mxGeometry x="190" y="360" width="60" height="20" as="geometry" />
        </mxCell>
        <mxCell id="QC46QSZm51jcQvzhhJ4u-11" value="" style="endArrow=none;html=1;rounded=0;" edge="1" parent="1">
          <mxGeometry width="50" height="50" relative="1" as="geometry">
            <mxPoint x="210" y="380" as="sourcePoint" />
            <mxPoint x="310" y="380" as="targetPoint" />
          </mxGeometry>
        </mxCell>
        <mxCell id="QC46QSZm51jcQvzhhJ4u-14" value="&lt;span style=&quot;font-size: 7px;&quot;&gt;Şifre&lt;/span&gt;" style="text;html=1;align=center;verticalAlign=middle;whiteSpace=wrap;rounded=0;" vertex="1" parent="1">
          <mxGeometry x="190" y="380" width="60" height="20" as="geometry" />
        </mxCell>
        <mxCell id="QC46QSZm51jcQvzhhJ4u-15" value="" style="endArrow=none;html=1;rounded=0;" edge="1" parent="1">
          <mxGeometry width="50" height="50" relative="1" as="geometry">
            <mxPoint x="210" y="400" as="sourcePoint" />
            <mxPoint x="310" y="400" as="targetPoint" />
          </mxGeometry>
        </mxCell>
        <mxCell id="QC46QSZm51jcQvzhhJ4u-16" value="&lt;font style=&quot;font-size: 7px;&quot;&gt;Google ile Giriş&lt;/font&gt;" style="rounded=1;whiteSpace=wrap;html=1;arcSize=26;" vertex="1" parent="1">
          <mxGeometry x="210" y="450" width="100" height="20" as="geometry" />
        </mxCell>
        <mxCell id="QC46QSZm51jcQvzhhJ4u-17" value="&lt;span style=&quot;font-size: 7px;&quot;&gt;Giriş&lt;/span&gt;" style="text;html=1;align=center;verticalAlign=middle;whiteSpace=wrap;rounded=0;" vertex="1" parent="1">
          <mxGeometry x="230" y="400" width="60" height="20" as="geometry" />
        </mxCell>
        <mxCell id="QC46QSZm51jcQvzhhJ4u-18" value="&lt;span style=&quot;font-size: 7px;&quot;&gt;Yeni Hesap&lt;/span&gt;" style="text;html=1;align=center;verticalAlign=middle;whiteSpace=wrap;rounded=0;" vertex="1" parent="1">
          <mxGeometry x="230" y="420" width="60" height="10" as="geometry" />
        </mxCell>
        <mxCell id="QC46QSZm51jcQvzhhJ4u-49" style="edgeStyle=orthogonalEdgeStyle;rounded=0;orthogonalLoop=1;jettySize=auto;html=1;entryX=1;entryY=0.5;entryDx=0;entryDy=0;" edge="1" parent="1" source="QC46QSZm51jcQvzhhJ4u-32" target="QC46QSZm51jcQvzhhJ4u-8">
          <mxGeometry relative="1" as="geometry" />
        </mxCell>
        <mxCell id="QC46QSZm51jcQvzhhJ4u-50" value="&lt;font style=&quot;font-size: 7px;&quot;&gt;Girişe Geri Dön&lt;/font&gt;" style="edgeLabel;html=1;align=center;verticalAlign=middle;resizable=0;points=[];" vertex="1" connectable="0" parent="QC46QSZm51jcQvzhhJ4u-49">
          <mxGeometry x="-0.0933" relative="1" as="geometry">
            <mxPoint y="-5" as="offset" />
          </mxGeometry>
        </mxCell>
        <mxCell id="QC46QSZm51jcQvzhhJ4u-51" value="&lt;font style=&quot;font-size: 7px;&quot;&gt;Yeni Hesap Oluştur&lt;/font&gt;" style="edgeLabel;html=1;align=center;verticalAlign=middle;resizable=0;points=[];" vertex="1" connectable="0" parent="QC46QSZm51jcQvzhhJ4u-49">
          <mxGeometry x="-0.0433" relative="1" as="geometry">
            <mxPoint y="5" as="offset" />
          </mxGeometry>
        </mxCell>
        <mxCell id="QC46QSZm51jcQvzhhJ4u-32" value="" style="rounded=1;whiteSpace=wrap;html=1;" vertex="1" parent="1">
          <mxGeometry x="400" y="280" width="120" height="210" as="geometry" />
        </mxCell>
        <mxCell id="QC46QSZm51jcQvzhhJ4u-33" value="Program Adı ve Üst Dekorasyon" style="rounded=1;whiteSpace=wrap;html=1;arcSize=30;" vertex="1" parent="1">
          <mxGeometry x="400" y="280" width="120" height="60" as="geometry" />
        </mxCell>
        <mxCell id="QC46QSZm51jcQvzhhJ4u-34" value="&lt;span style=&quot;font-size: 7px;&quot;&gt;Email&lt;/span&gt;" style="text;html=1;align=center;verticalAlign=middle;whiteSpace=wrap;rounded=0;" vertex="1" parent="1">
          <mxGeometry x="390" y="360" width="60" height="20" as="geometry" />
        </mxCell>
        <mxCell id="QC46QSZm51jcQvzhhJ4u-35" value="" style="endArrow=none;html=1;rounded=0;" edge="1" parent="1">
          <mxGeometry width="50" height="50" relative="1" as="geometry">
            <mxPoint x="410" y="380" as="sourcePoint" />
            <mxPoint x="510" y="380" as="targetPoint" />
          </mxGeometry>
        </mxCell>
        <mxCell id="QC46QSZm51jcQvzhhJ4u-36" value="&lt;span style=&quot;font-size: 7px;&quot;&gt;Şifre&lt;/span&gt;" style="text;html=1;align=center;verticalAlign=middle;whiteSpace=wrap;rounded=0;" vertex="1" parent="1">
          <mxGeometry x="390" y="380" width="60" height="20" as="geometry" />
        </mxCell>
        <mxCell id="QC46QSZm51jcQvzhhJ4u-37" value="" style="endArrow=none;html=1;rounded=0;" edge="1" parent="1">
          <mxGeometry width="50" height="50" relative="1" as="geometry">
            <mxPoint x="410" y="400" as="sourcePoint" />
            <mxPoint x="510" y="400" as="targetPoint" />
          </mxGeometry>
        </mxCell>
        <mxCell id="QC46QSZm51jcQvzhhJ4u-38" value="&lt;span style=&quot;font-size: 7px;&quot;&gt;Yeni Hesap Oluştur&lt;/span&gt;" style="text;html=1;align=center;verticalAlign=middle;whiteSpace=wrap;rounded=0;" vertex="1" parent="1">
          <mxGeometry x="420" y="430" width="80" height="20" as="geometry" />
        </mxCell>
        <mxCell id="QC46QSZm51jcQvzhhJ4u-39" value="&lt;span style=&quot;font-size: 7px;&quot;&gt;Girişe Geri Dön&lt;/span&gt;" style="text;html=1;align=center;verticalAlign=middle;whiteSpace=wrap;rounded=0;" vertex="1" parent="1">
          <mxGeometry x="430" y="450" width="60" height="10" as="geometry" />
        </mxCell>
        <mxCell id="QC46QSZm51jcQvzhhJ4u-42" value="&lt;font style=&quot;font-size: 10px;&quot;&gt;Giriş&lt;/font&gt;" style="text;html=1;align=center;verticalAlign=middle;whiteSpace=wrap;rounded=0;" vertex="1" parent="1">
          <mxGeometry x="230" y="350" width="60" height="10" as="geometry" />
        </mxCell>
        <mxCell id="QC46QSZm51jcQvzhhJ4u-43" value="&lt;font style=&quot;font-size: 10px;&quot;&gt;Yeni Hesap&lt;/font&gt;" style="text;html=1;align=center;verticalAlign=middle;whiteSpace=wrap;rounded=0;" vertex="1" parent="1">
          <mxGeometry x="430" y="350" width="60" height="10" as="geometry" />
        </mxCell>
        <mxCell id="QC46QSZm51jcQvzhhJ4u-44" value="&lt;span style=&quot;font-size: 7px;&quot;&gt;&amp;nbsp; &amp;nbsp; &amp;nbsp; &amp;nbsp; &amp;nbsp; &amp;nbsp;Tekrar Şifre&lt;/span&gt;" style="text;html=1;align=center;verticalAlign=middle;whiteSpace=wrap;rounded=0;" vertex="1" parent="1">
          <mxGeometry x="390" y="399.67" width="60" height="20" as="geometry" />
        </mxCell>
        <mxCell id="QC46QSZm51jcQvzhhJ4u-45" value="" style="endArrow=none;html=1;rounded=0;" edge="1" parent="1">
          <mxGeometry width="50" height="50" relative="1" as="geometry">
            <mxPoint x="410" y="419.67" as="sourcePoint" />
            <mxPoint x="510" y="419.67" as="targetPoint" />
          </mxGeometry>
        </mxCell>
        <mxCell id="QC46QSZm51jcQvzhhJ4u-80" style="edgeStyle=orthogonalEdgeStyle;rounded=0;orthogonalLoop=1;jettySize=auto;html=1;exitX=1;exitY=0.75;exitDx=0;exitDy=0;entryX=0;entryY=0.75;entryDx=0;entryDy=0;" edge="1" parent="1">
          <mxGeometry relative="1" as="geometry">
            <mxPoint x="320" y="570" as="sourcePoint" />
            <mxPoint x="400" y="570" as="targetPoint" />
          </mxGeometry>
        </mxCell>
        <mxCell id="QC46QSZm51jcQvzhhJ4u-81" value="&lt;font style=&quot;font-size: 7px;&quot;&gt;Kayıt Geçmişi&lt;/font&gt;" style="edgeLabel;html=1;align=center;verticalAlign=middle;resizable=0;points=[];" vertex="1" connectable="0" parent="QC46QSZm51jcQvzhhJ4u-80">
          <mxGeometry x="0.2967" relative="1" as="geometry">
            <mxPoint x="-12" y="3" as="offset" />
          </mxGeometry>
        </mxCell>
        <mxCell id="QC46QSZm51jcQvzhhJ4u-54" value="" style="rounded=1;whiteSpace=wrap;html=1;" vertex="1" parent="1">
          <mxGeometry x="200" y="520" width="120" height="210" as="geometry" />
        </mxCell>
        <mxCell id="QC46QSZm51jcQvzhhJ4u-57" value="" style="endArrow=none;html=1;rounded=0;" edge="1" parent="1">
          <mxGeometry width="50" height="50" relative="1" as="geometry">
            <mxPoint x="200" y="560" as="sourcePoint" />
            <mxPoint x="320" y="560" as="targetPoint" />
          </mxGeometry>
        </mxCell>
        <mxCell id="QC46QSZm51jcQvzhhJ4u-58" value="Icon ve Sayfa Adı" style="rounded=1;whiteSpace=wrap;html=1;" vertex="1" parent="1">
          <mxGeometry x="210" y="530" width="100" height="20" as="geometry" />
        </mxCell>
        <mxCell id="QC46QSZm51jcQvzhhJ4u-59" value="Hava bilgileri" style="rounded=1;whiteSpace=wrap;html=1;arcSize=0;" vertex="1" parent="1">
          <mxGeometry x="210" y="570" width="100" height="50" as="geometry" />
        </mxCell>
        <mxCell id="QC46QSZm51jcQvzhhJ4u-60" value="Yeni Kayıt" style="rounded=1;whiteSpace=wrap;html=1;" vertex="1" parent="1">
          <mxGeometry x="210" y="630" width="100" height="30" as="geometry" />
        </mxCell>
        <mxCell id="QC46QSZm51jcQvzhhJ4u-61" value="Kayıt Geçmişi" style="rounded=1;whiteSpace=wrap;html=1;" vertex="1" parent="1">
          <mxGeometry x="210" y="670" width="100" height="30" as="geometry" />
        </mxCell>
        <mxCell id="QC46QSZm51jcQvzhhJ4u-62" value="" style="endArrow=none;html=1;rounded=0;" edge="1" parent="1">
          <mxGeometry width="50" height="50" relative="1" as="geometry">
            <mxPoint x="200" y="710" as="sourcePoint" />
            <mxPoint x="320" y="710" as="targetPoint" />
          </mxGeometry>
        </mxCell>
        <mxCell id="QC46QSZm51jcQvzhhJ4u-128" style="edgeStyle=orthogonalEdgeStyle;rounded=0;orthogonalLoop=1;jettySize=auto;html=1;exitX=0.5;exitY=1;exitDx=0;exitDy=0;" edge="1" parent="1">
          <mxGeometry relative="1" as="geometry">
            <mxPoint x="290" y="730" as="sourcePoint" />
            <mxPoint x="290" y="760" as="targetPoint" />
            <Array as="points">
              <mxPoint x="290" y="740" />
              <mxPoint x="290" y="740" />
            </Array>
          </mxGeometry>
        </mxCell>
        <mxCell id="QC46QSZm51jcQvzhhJ4u-129" value="&lt;font style=&quot;font-size: 7px;&quot;&gt;Yeni Kayıt&lt;/font&gt;" style="edgeLabel;html=1;align=center;verticalAlign=middle;resizable=0;points=[];" vertex="1" connectable="0" parent="QC46QSZm51jcQvzhhJ4u-128">
          <mxGeometry x="0.3657" y="1" relative="1" as="geometry">
            <mxPoint x="-1" y="-10" as="offset" />
          </mxGeometry>
        </mxCell>
        <mxCell id="QC46QSZm51jcQvzhhJ4u-134" style="edgeStyle=orthogonalEdgeStyle;rounded=0;orthogonalLoop=1;jettySize=auto;html=1;exitX=0.5;exitY=1;exitDx=0;exitDy=0;endArrow=none;endFill=0;startArrow=classic;startFill=1;" edge="1" parent="1">
          <mxGeometry relative="1" as="geometry">
            <mxPoint x="230" y="730" as="sourcePoint" />
            <mxPoint x="230" y="760" as="targetPoint" />
          </mxGeometry>
        </mxCell>
        <mxCell id="QC46QSZm51jcQvzhhJ4u-135" value="&lt;font style=&quot;font-size: 7px;&quot;&gt;Ana Sayfa&lt;/font&gt;" style="edgeLabel;html=1;align=center;verticalAlign=middle;resizable=0;points=[];" vertex="1" connectable="0" parent="QC46QSZm51jcQvzhhJ4u-134">
          <mxGeometry x="-0.1022" relative="1" as="geometry">
            <mxPoint y="7" as="offset" />
          </mxGeometry>
        </mxCell>
        <mxCell id="QC46QSZm51jcQvzhhJ4u-66" value="&lt;font style=&quot;font-size: 10px;&quot;&gt;Katkıda Bulunanlar&lt;/font&gt;" style="text;html=1;align=center;verticalAlign=middle;whiteSpace=wrap;rounded=0;" vertex="1" parent="1">
          <mxGeometry x="210" y="710" width="100" height="20" as="geometry" />
        </mxCell>
        <mxCell id="QC46QSZm51jcQvzhhJ4u-97" style="edgeStyle=orthogonalEdgeStyle;rounded=0;orthogonalLoop=1;jettySize=auto;html=1;exitX=1;exitY=0.25;exitDx=0;exitDy=0;entryX=0;entryY=0.25;entryDx=0;entryDy=0;" edge="1" parent="1" source="QC46QSZm51jcQvzhhJ4u-70" target="QC46QSZm51jcQvzhhJ4u-82">
          <mxGeometry relative="1" as="geometry" />
        </mxCell>
        <mxCell id="QC46QSZm51jcQvzhhJ4u-105" value="&lt;font style=&quot;font-size: 7px;&quot;&gt;Kayıt&lt;/font&gt;" style="edgeLabel;html=1;align=center;verticalAlign=middle;resizable=0;points=[];" vertex="1" connectable="0" parent="QC46QSZm51jcQvzhhJ4u-97">
          <mxGeometry x="-0.0286" y="2" relative="1" as="geometry">
            <mxPoint as="offset" />
          </mxGeometry>
        </mxCell>
        <mxCell id="QC46QSZm51jcQvzhhJ4u-101" style="edgeStyle=orthogonalEdgeStyle;rounded=0;orthogonalLoop=1;jettySize=auto;html=1;exitX=0;exitY=0.75;exitDx=0;exitDy=0;entryX=1;entryY=0.75;entryDx=0;entryDy=0;" edge="1" parent="1" source="QC46QSZm51jcQvzhhJ4u-70" target="QC46QSZm51jcQvzhhJ4u-54">
          <mxGeometry relative="1" as="geometry" />
        </mxCell>
        <mxCell id="QC46QSZm51jcQvzhhJ4u-102" value="&lt;font style=&quot;font-size: 7px;&quot;&gt;Ana Sayfa&lt;/font&gt;" style="edgeLabel;html=1;align=center;verticalAlign=middle;resizable=0;points=[];" vertex="1" connectable="0" parent="QC46QSZm51jcQvzhhJ4u-101">
          <mxGeometry x="0.1" y="-1" relative="1" as="geometry">
            <mxPoint as="offset" />
          </mxGeometry>
        </mxCell>
        <mxCell id="QC46QSZm51jcQvzhhJ4u-70" value="" style="rounded=1;whiteSpace=wrap;html=1;" vertex="1" parent="1">
          <mxGeometry x="400" y="520" width="120" height="210" as="geometry" />
        </mxCell>
        <mxCell id="QC46QSZm51jcQvzhhJ4u-71" value="" style="endArrow=none;html=1;rounded=0;" edge="1" parent="1">
          <mxGeometry width="50" height="50" relative="1" as="geometry">
            <mxPoint x="400" y="560" as="sourcePoint" />
            <mxPoint x="520" y="560" as="targetPoint" />
          </mxGeometry>
        </mxCell>
        <mxCell id="QC46QSZm51jcQvzhhJ4u-72" value="Icon ve Sayfa Adı" style="rounded=1;whiteSpace=wrap;html=1;arcSize=0;" vertex="1" parent="1">
          <mxGeometry x="410" y="530" width="100" height="20" as="geometry" />
        </mxCell>
        <mxCell id="QC46QSZm51jcQvzhhJ4u-73" value="" style="endArrow=none;html=1;rounded=0;" edge="1" parent="1">
          <mxGeometry width="50" height="50" relative="1" as="geometry">
            <mxPoint x="510" y="564.8299999999999" as="sourcePoint" />
            <mxPoint x="510" y="685.16" as="targetPoint" />
          </mxGeometry>
        </mxCell>
        <mxCell id="QC46QSZm51jcQvzhhJ4u-75" value="" style="rounded=1;whiteSpace=wrap;html=1;rotation=90;" vertex="1" parent="1">
          <mxGeometry x="500" y="580" width="20" height="10" as="geometry" />
        </mxCell>
        <mxCell id="QC46QSZm51jcQvzhhJ4u-76" value="Kayıt1" style="rounded=1;whiteSpace=wrap;html=1;" vertex="1" parent="1">
          <mxGeometry x="410" y="570" width="90" height="30" as="geometry" />
        </mxCell>
        <mxCell id="QC46QSZm51jcQvzhhJ4u-77" value="Kayıt2" style="rounded=1;whiteSpace=wrap;html=1;" vertex="1" parent="1">
          <mxGeometry x="410" y="610" width="90" height="30" as="geometry" />
        </mxCell>
        <mxCell id="QC46QSZm51jcQvzhhJ4u-78" value="Kayıt3" style="rounded=1;whiteSpace=wrap;html=1;" vertex="1" parent="1">
          <mxGeometry x="410" y="650" width="90" height="30" as="geometry" />
        </mxCell>
        <mxCell id="QC46QSZm51jcQvzhhJ4u-98" style="edgeStyle=orthogonalEdgeStyle;rounded=0;orthogonalLoop=1;jettySize=auto;html=1;exitX=0;exitY=0.75;exitDx=0;exitDy=0;entryX=1;entryY=0.75;entryDx=0;entryDy=0;" edge="1" parent="1" source="QC46QSZm51jcQvzhhJ4u-82" target="QC46QSZm51jcQvzhhJ4u-70">
          <mxGeometry relative="1" as="geometry" />
        </mxCell>
        <mxCell id="QC46QSZm51jcQvzhhJ4u-103" value="&lt;font style=&quot;font-size: 7px;&quot;&gt;Geri&lt;/font&gt;" style="edgeLabel;html=1;align=center;verticalAlign=middle;resizable=0;points=[];" vertex="1" connectable="0" parent="QC46QSZm51jcQvzhhJ4u-98">
          <mxGeometry x="-0.0071" relative="1" as="geometry">
            <mxPoint as="offset" />
          </mxGeometry>
        </mxCell>
        <mxCell id="QC46QSZm51jcQvzhhJ4u-82" value="" style="rounded=1;whiteSpace=wrap;html=1;" vertex="1" parent="1">
          <mxGeometry x="600" y="520" width="120" height="210" as="geometry" />
        </mxCell>
        <mxCell id="QC46QSZm51jcQvzhhJ4u-83" value="" style="endArrow=none;html=1;rounded=0;" edge="1" parent="1">
          <mxGeometry width="50" height="50" relative="1" as="geometry">
            <mxPoint x="600" y="580" as="sourcePoint" />
            <mxPoint x="720" y="580" as="targetPoint" />
          </mxGeometry>
        </mxCell>
        <mxCell id="QC46QSZm51jcQvzhhJ4u-85" value="" style="endArrow=none;html=1;rounded=0;" edge="1" parent="1">
          <mxGeometry width="50" height="50" relative="1" as="geometry">
            <mxPoint x="600" y="690" as="sourcePoint" />
            <mxPoint x="720" y="690" as="targetPoint" />
          </mxGeometry>
        </mxCell>
        <mxCell id="QC46QSZm51jcQvzhhJ4u-86" value="&lt;font style=&quot;font-size: 7px;&quot;&gt;Bitiş&lt;/font&gt;" style="text;html=1;align=center;verticalAlign=middle;whiteSpace=wrap;rounded=0;" vertex="1" parent="1">
          <mxGeometry x="660" y="520" width="60" height="20" as="geometry" />
        </mxCell>
        <mxCell id="QC46QSZm51jcQvzhhJ4u-87" value="" style="endArrow=none;html=1;rounded=0;" edge="1" parent="1">
          <mxGeometry width="50" height="50" relative="1" as="geometry">
            <mxPoint x="670" y="540" as="sourcePoint" />
            <mxPoint x="710" y="540" as="targetPoint" />
          </mxGeometry>
        </mxCell>
        <mxCell id="QC46QSZm51jcQvzhhJ4u-88" value="&lt;font style=&quot;font-size: 7px;&quot;&gt;Başlangıç&lt;/font&gt;" style="text;html=1;align=center;verticalAlign=middle;whiteSpace=wrap;rounded=0;" vertex="1" parent="1">
          <mxGeometry x="600" y="520" width="60" height="20" as="geometry" />
        </mxCell>
        <mxCell id="QC46QSZm51jcQvzhhJ4u-89" value="" style="endArrow=none;html=1;rounded=0;" edge="1" parent="1">
          <mxGeometry width="50" height="50" relative="1" as="geometry">
            <mxPoint x="610" y="540" as="sourcePoint" />
            <mxPoint x="650" y="540" as="targetPoint" />
          </mxGeometry>
        </mxCell>
        <mxCell id="QC46QSZm51jcQvzhhJ4u-90" value="&lt;font style=&quot;font-size: 7px;&quot;&gt;Kayıt Mesafesi&lt;/font&gt;" style="text;html=1;align=center;verticalAlign=middle;whiteSpace=wrap;rounded=0;" vertex="1" parent="1">
          <mxGeometry x="660" y="550" width="60" height="20" as="geometry" />
        </mxCell>
        <mxCell id="QC46QSZm51jcQvzhhJ4u-91" value="" style="endArrow=none;html=1;rounded=0;" edge="1" parent="1">
          <mxGeometry width="50" height="50" relative="1" as="geometry">
            <mxPoint x="670" y="570" as="sourcePoint" />
            <mxPoint x="710" y="570" as="targetPoint" />
          </mxGeometry>
        </mxCell>
        <mxCell id="QC46QSZm51jcQvzhhJ4u-92" value="&lt;font style=&quot;font-size: 7px;&quot;&gt;Kayıt Süresi&lt;/font&gt;" style="text;html=1;align=center;verticalAlign=middle;whiteSpace=wrap;rounded=0;" vertex="1" parent="1">
          <mxGeometry x="600" y="549.67" width="60" height="20" as="geometry" />
        </mxCell>
        <mxCell id="QC46QSZm51jcQvzhhJ4u-93" value="" style="endArrow=none;html=1;rounded=0;" edge="1" parent="1">
          <mxGeometry width="50" height="50" relative="1" as="geometry">
            <mxPoint x="610" y="569.67" as="sourcePoint" />
            <mxPoint x="650" y="569.67" as="targetPoint" />
          </mxGeometry>
        </mxCell>
        <mxCell id="QC46QSZm51jcQvzhhJ4u-94" value="&lt;font style=&quot;font-size: 7px;&quot;&gt;Ana Sayfa&lt;/font&gt;" style="rounded=1;whiteSpace=wrap;html=1;" vertex="1" parent="1">
          <mxGeometry x="420" y="700" width="80" height="20" as="geometry" />
        </mxCell>
        <mxCell id="QC46QSZm51jcQvzhhJ4u-95" value="&lt;font style=&quot;font-size: 7px;&quot;&gt;Kayıtı Sil&lt;/font&gt;" style="rounded=1;whiteSpace=wrap;html=1;" vertex="1" parent="1">
          <mxGeometry x="670" y="700" width="40" height="20" as="geometry" />
        </mxCell>
        <mxCell id="QC46QSZm51jcQvzhhJ4u-96" value="Harita Ve Rota Çizimi" style="text;html=1;align=center;verticalAlign=middle;whiteSpace=wrap;rounded=0;" vertex="1" parent="1">
          <mxGeometry x="630" y="620" width="60" height="30" as="geometry" />
        </mxCell>
        <mxCell id="QC46QSZm51jcQvzhhJ4u-99" value="" style="endArrow=none;html=1;rounded=0;" edge="1" parent="1">
          <mxGeometry width="50" height="50" relative="1" as="geometry">
            <mxPoint x="400" y="690" as="sourcePoint" />
            <mxPoint x="520" y="690" as="targetPoint" />
          </mxGeometry>
        </mxCell>
        <mxCell id="QC46QSZm51jcQvzhhJ4u-100" value="&lt;font style=&quot;font-size: 7px;&quot;&gt;Geri&lt;/font&gt;" style="rounded=1;whiteSpace=wrap;html=1;" vertex="1" parent="1">
          <mxGeometry x="610" y="700" width="40" height="20" as="geometry" />
        </mxCell>
        <mxCell id="QC46QSZm51jcQvzhhJ4u-136" style="edgeStyle=orthogonalEdgeStyle;rounded=0;orthogonalLoop=1;jettySize=auto;html=1;exitX=1;exitY=0.5;exitDx=0;exitDy=0;entryX=0;entryY=0.5;entryDx=0;entryDy=0;" edge="1" parent="1">
          <mxGeometry relative="1" as="geometry">
            <mxPoint x="320" y="810" as="sourcePoint" />
            <mxPoint x="400" y="810" as="targetPoint" />
          </mxGeometry>
        </mxCell>
        <mxCell id="QC46QSZm51jcQvzhhJ4u-137" value="&lt;font style=&quot;font-size: 7px;&quot;&gt;Kayıtı Başlat&lt;/font&gt;" style="edgeLabel;html=1;align=center;verticalAlign=middle;resizable=0;points=[];" vertex="1" connectable="0" parent="QC46QSZm51jcQvzhhJ4u-136">
          <mxGeometry x="0.0317" relative="1" as="geometry">
            <mxPoint as="offset" />
          </mxGeometry>
        </mxCell>
        <mxCell id="QC46QSZm51jcQvzhhJ4u-106" value="" style="rounded=1;whiteSpace=wrap;html=1;" vertex="1" parent="1">
          <mxGeometry x="200" y="760" width="120" height="210" as="geometry" />
        </mxCell>
        <mxCell id="QC46QSZm51jcQvzhhJ4u-107" value="" style="endArrow=none;html=1;rounded=0;" edge="1" parent="1">
          <mxGeometry width="50" height="50" relative="1" as="geometry">
            <mxPoint x="200" y="820" as="sourcePoint" />
            <mxPoint x="320" y="820" as="targetPoint" />
          </mxGeometry>
        </mxCell>
        <mxCell id="QC46QSZm51jcQvzhhJ4u-108" value="&lt;font style=&quot;font-size: 7px;&quot;&gt;Kayıtı Başlat&lt;/font&gt;" style="rounded=1;whiteSpace=wrap;html=1;" vertex="1" parent="1">
          <mxGeometry x="210" y="790" width="100" height="20" as="geometry" />
        </mxCell>
        <mxCell id="QC46QSZm51jcQvzhhJ4u-110" value="&lt;font style=&quot;font-size: 7px;&quot;&gt;Ana Sayfa&lt;/font&gt;" style="rounded=1;whiteSpace=wrap;html=1;" vertex="1" parent="1">
          <mxGeometry x="220" y="940" width="80" height="20" as="geometry" />
        </mxCell>
        <mxCell id="QC46QSZm51jcQvzhhJ4u-111" value="" style="endArrow=none;html=1;rounded=0;" edge="1" parent="1">
          <mxGeometry width="50" height="50" relative="1" as="geometry">
            <mxPoint x="200" y="930" as="sourcePoint" />
            <mxPoint x="320" y="930" as="targetPoint" />
          </mxGeometry>
        </mxCell>
        <mxCell id="QC46QSZm51jcQvzhhJ4u-113" value="&lt;span style=&quot;font-size: 7px;&quot;&gt;&amp;nbsp; &amp;nbsp;Kayıt Frekansı&lt;/span&gt;" style="text;html=1;align=center;verticalAlign=middle;whiteSpace=wrap;rounded=0;" vertex="1" parent="1">
          <mxGeometry x="190" y="760" width="80" height="20" as="geometry" />
        </mxCell>
        <mxCell id="QC46QSZm51jcQvzhhJ4u-114" value="" style="endArrow=none;html=1;rounded=0;" edge="1" parent="1">
          <mxGeometry width="50" height="50" relative="1" as="geometry">
            <mxPoint x="210" y="780" as="sourcePoint" />
            <mxPoint x="310" y="780" as="targetPoint" />
          </mxGeometry>
        </mxCell>
        <mxCell id="QC46QSZm51jcQvzhhJ4u-115" value="Harita" style="text;html=1;align=center;verticalAlign=middle;whiteSpace=wrap;rounded=0;" vertex="1" parent="1">
          <mxGeometry x="230" y="860" width="60" height="30" as="geometry" />
        </mxCell>
        <mxCell id="QC46QSZm51jcQvzhhJ4u-116" value="" style="rounded=1;whiteSpace=wrap;html=1;" vertex="1" parent="1">
          <mxGeometry x="400" y="760" width="120" height="210" as="geometry" />
        </mxCell>
        <mxCell id="QC46QSZm51jcQvzhhJ4u-117" value="" style="endArrow=none;html=1;rounded=0;" edge="1" parent="1">
          <mxGeometry width="50" height="50" relative="1" as="geometry">
            <mxPoint x="400" y="790" as="sourcePoint" />
            <mxPoint x="520" y="790" as="targetPoint" />
            <Array as="points">
              <mxPoint x="460" y="790" />
            </Array>
          </mxGeometry>
        </mxCell>
        <mxCell id="QC46QSZm51jcQvzhhJ4u-118" value="&lt;span style=&quot;font-size: 7px;&quot;&gt;Kayıtı Bitir&lt;/span&gt;" style="rounded=1;whiteSpace=wrap;html=1;" vertex="1" parent="1">
          <mxGeometry x="420" y="940" width="80" height="20" as="geometry" />
        </mxCell>
        <mxCell id="QC46QSZm51jcQvzhhJ4u-119" value="" style="endArrow=none;html=1;rounded=0;" edge="1" parent="1">
          <mxGeometry width="50" height="50" relative="1" as="geometry">
            <mxPoint x="400" y="930" as="sourcePoint" />
            <mxPoint x="520" y="930" as="targetPoint" />
          </mxGeometry>
        </mxCell>
        <mxCell id="QC46QSZm51jcQvzhhJ4u-121" value="&lt;font style=&quot;font-size: 7px;&quot;&gt;Kayıt Mesafesi&lt;/font&gt;" style="text;html=1;align=center;verticalAlign=middle;whiteSpace=wrap;rounded=0;" vertex="1" parent="1">
          <mxGeometry x="460" y="760.33" width="60" height="20" as="geometry" />
        </mxCell>
        <mxCell id="QC46QSZm51jcQvzhhJ4u-122" value="" style="endArrow=none;html=1;rounded=0;" edge="1" parent="1">
          <mxGeometry width="50" height="50" relative="1" as="geometry">
            <mxPoint x="470" y="780.33" as="sourcePoint" />
            <mxPoint x="510" y="780.33" as="targetPoint" />
          </mxGeometry>
        </mxCell>
        <mxCell id="QC46QSZm51jcQvzhhJ4u-123" value="&lt;font style=&quot;font-size: 7px;&quot;&gt;Kayıt Süresi&lt;/font&gt;" style="text;html=1;align=center;verticalAlign=middle;whiteSpace=wrap;rounded=0;" vertex="1" parent="1">
          <mxGeometry x="400" y="760" width="60" height="20" as="geometry" />
        </mxCell>
        <mxCell id="QC46QSZm51jcQvzhhJ4u-124" value="" style="endArrow=none;html=1;rounded=0;" edge="1" parent="1">
          <mxGeometry width="50" height="50" relative="1" as="geometry">
            <mxPoint x="410" y="780" as="sourcePoint" />
            <mxPoint x="450" y="780" as="targetPoint" />
          </mxGeometry>
        </mxCell>
        <mxCell id="QC46QSZm51jcQvzhhJ4u-125" value="Harita" style="text;html=1;align=center;verticalAlign=middle;whiteSpace=wrap;rounded=0;" vertex="1" parent="1">
          <mxGeometry x="430" y="850" width="60" height="30" as="geometry" />
        </mxCell>
        <mxCell id="QC46QSZm51jcQvzhhJ4u-138" style="edgeStyle=orthogonalEdgeStyle;rounded=0;orthogonalLoop=1;jettySize=auto;html=1;exitX=1;exitY=0.5;exitDx=0;exitDy=0;entryX=0;entryY=0.5;entryDx=0;entryDy=0;endArrow=none;endFill=0;startArrow=classic;startFill=1;" edge="1" parent="1">
          <mxGeometry relative="1" as="geometry">
            <mxPoint x="320" y="920" as="sourcePoint" />
            <mxPoint x="400" y="920" as="targetPoint" />
          </mxGeometry>
        </mxCell>
        <mxCell id="QC46QSZm51jcQvzhhJ4u-139" value="&lt;font style=&quot;font-size: 7px;&quot;&gt;Kayıtı Bitir&lt;/font&gt;" style="edgeLabel;html=1;align=center;verticalAlign=middle;resizable=0;points=[];" vertex="1" connectable="0" parent="QC46QSZm51jcQvzhhJ4u-138">
          <mxGeometry x="0.0317" relative="1" as="geometry">
            <mxPoint as="offset" />
          </mxGeometry>
        </mxCell>
        <mxCell id="QC46QSZm51jcQvzhhJ4u-140" value="UI Diyagramı" style="text;html=1;align=center;verticalAlign=middle;whiteSpace=wrap;rounded=0;fontSize=16;" vertex="1" parent="1">
          <mxGeometry x="375" y="10" width="160" height="30" as="geometry" />
        </mxCell>
        <mxCell id="QC46QSZm51jcQvzhhJ4u-141" value="&lt;span style=&quot;font-size: 10px;&quot;&gt;Uygulama Sayfaları&lt;/span&gt;" style="text;html=1;align=center;verticalAlign=middle;whiteSpace=wrap;rounded=0;fontSize=16;" vertex="1" parent="1">
          <mxGeometry x="395" y="40" width="120" height="30" as="geometry" />
        </mxCell>
        <mxCell id="QC46QSZm51jcQvzhhJ4u-142" value="&lt;font style=&quot;font-size: 10px;&quot;&gt;Ahmet Arda Bağdatlı&lt;/font&gt;" style="text;html=1;align=center;verticalAlign=middle;whiteSpace=wrap;rounded=0;fontSize=16;" vertex="1" parent="1">
          <mxGeometry x="590" y="920" width="120" height="30" as="geometry" />
        </mxCell>
      </root>
    </mxGraphModel>
  </diagram>
</mxfile>
